<svg xmlns="http://www.w3.org/2000/svg" viewBox="0 0 18 16.17"><defs><style>.cls-1{fill:#414141;}</style></defs><title>Asset 3</title><g id="Layer_2" data-name="Layer 2"><g id="Layer_1-2" data-name="Layer 1"><path class="cls-1" d="M17.63,3.05H7.13a.43.43,0,0,0-.43.59L8.36,8.51A.71.71,0,0,0,9,9h6.89a.71.71,0,0,0,.64-.47l1.45-5A.35.35,0,0,0,17.63,3.05Z"/><circle class="cls-1" cx="8.08" cy="14.58" r="1.57"/><circle class="cls-1" cx="14.73" cy="14.6" r="1.57"/><path class="cls-1" d="M16.61,10.58H7.43L3.75,0H.89a.89.89,0,0,0,0,1.78h1.6L6.16,12.36H16.61a.89.89,0,1,0,0-1.78Z"/></g></g></svg>