<svg xmlns="http://www.w3.org/2000/svg" viewBox="0 0 149.55 53.6"><defs><style>.cls-1{fill:#ea0a8c;}.cls-2{fill:#ea0a8d;}.cls-3{fill:#2d3691;}.cls-4{fill:#2e3791;}.cls-5{fill:#e90d8e;}.cls-6{fill:#ea1290;}.cls-7{fill:#df1590;}.cls-8{fill:#e2128f;}.cls-9{fill:#d71b91;}</style></defs><title>Asset 1</title><g id="Layer_2" data-name="Layer 2"><g id="Layer_1-2" data-name="Layer 1"><path class="cls-1" d="M62.1,23.39c-2.87,0-5.74,0-8.6.11-4.29.14-6.72,2.14-7.71,6.31-.5,2.13-.81,4.31-1.36,6.44-2.84,11-11.1,17.19-22.43,17C10.49,53,3.3,46.56,1.13,34.42A96.51,96.51,0,0,1,0,19.52c0-1.09.26-1.59,1.38-1.5.42,0,.85,0,1.27,0L62,18.12A4.73,4.73,0,0,1,62.1,23.39Z"/><path class="cls-2" d="M105.68,18.21c12.27,0,24.55.05,36.83.13a6.71,6.71,0,0,1,7,7.27,6.5,6.5,0,0,1-7.18,6.23,5.08,5.08,0,0,1-4.3-3.11c-.28-.61-.63-1.33.1-1.83a1.28,1.28,0,0,1,1.8.3,2.23,2.23,0,0,0,2.78.52,1.93,1.93,0,0,0,1.12-2.32,2.06,2.06,0,0,0-2.15-1.77c-4.49-.05-9-.11-13.46-.12-1.18,0-2.13.34-2.34,1.78s.64,1.83,1.74,2.31c5.47,2.34,8.21,7,7.59,12.71a11.85,11.85,0,1,1-17.6-11.94,14.77,14.77,0,0,1,1.61-.75,2.14,2.14,0,0,0,1.26-2.71c-.26-1.19-1.17-1.29-2.15-1.29l-12.71-.05C104.18,21.68,104.19,20.05,105.68,18.21Z"/><path class="cls-3" d="M71.68,10.47C74,10,73.82,8.8,72.31,7.3a3.63,3.63,0,0,1,.88-.22c.74,0,1.26,1.6,2.07.49.68-.94.13-2-.66-2.72-3.46-3-7.51-3.13-11.7-2.15-2.17.51-4.19,1.37-5.4,3.45-1.55,2.65-1,4.73,1.83,5.9,2.26.94,1.33,2.9,1,4.1s-1.71.16-2.47-.22a7.26,7.26,0,0,1-2-11.73C59.73,0,68.9-1.35,73.8,1.49c3,1.76,3.86,3.63,2.79,6.92-.29.89-.28,1.49.49,1.92,3.15,1.76,3.53,4.66,3.34,7.83.77,1.83.49,3.78.64,5.68.07,2.36,0,4.73.07,7.09A3.14,3.14,0,0,0,83,34c2.19.95,3.16.38,3.27-2,.11-2.7-.18-5.41.2-8.1.64-1.85-.06-3.88.76-5.71v-.25c.36-4.06.26-8-4.42-10.53,2.12-.12,2,0,6.54,4,2.32,2,1.56,4.42,1.86,6.74a5.81,5.81,0,0,1,0,5.41c0,4.38-.09,8.77,0,13.15,0,1.56-.47,2.12-2,2-1.94-.09-3.88,0-5.82,0q-6.94,0-6.94-6.83c0-2.78,0-5.57,0-8.35-.55-1.8.08-3.71-.53-5.5a20.77,20.77,0,0,1-.21-4c0-1.53-.39-2.64-2.27-2.54C72.65,11.51,71.71,11.64,71.68,10.47Z"/><path class="cls-3" d="M62.1,23.39,62,18.12c1.5-4.6-1-7.78-4-10.93a22.27,22.27,0,0,1,7.58,5.29c1.38,1.39.51,3.72.77,5.61a8.41,8.41,0,0,1,0,5.45q-.08,11.16-.14,22.33c0,1.31.81,2.13,1.61,3,1.19,1.32,2.87,2.26,3.72,4.71-2.63-1.51-4.14-3.45-6.06-4.81-2.51-1.78-3.73-4-3.2-7.09.37-2.11-.69-2.65-2.61-2.51-1.33.09-2.79.41-4-.25-2.06-1.11-4.11-2.22-3.75-5.29a44.32,44.32,0,0,0,0-7.1c-.06-1.4.4-2,1.87-1.94a40.84,40.84,0,0,0,5.07,0c1.7-.11,2.19.58,2.19,2.21s-.45,2.42-2.16,2.25-3,0-2.85,2.3c.13,2.64,1,4.18,3,4.45,2.9.37,3.31.07,3.25-2.79C62.23,29.81,62.54,26.59,62.1,23.39Z"/><path class="cls-4" d="M95,18.13c0-2,.66-4.16-.37-5.94S92,9.17,91,7.38c2.49.65,4.09,2.71,6.19,4,2.86,1.7,1.7,4.43,2,6.8a13.32,13.32,0,0,1,0,5.41c0,7.36,0,14.72-.09,22.08a4.2,4.2,0,0,0,1.36,3.11c1.24,1.33,2.89,2.34,3.65,4.08-.74.74-1.15.09-1.56-.24C95,46.54,95,46.54,95,37c0-4.48,0-9-.07-13.44A6,6,0,0,1,95,18.13Z"/><path class="cls-4" d="M73.38,23.55c0,7.27,0,14.53-.07,21.8a4.7,4.7,0,0,0,1.52,3.56c1.22,1.27,2.87,2.23,3.49,4l-.5.53c-2.81-2.54-5.66-5-8.37-7.67-.4-.39-.18-1.46-.18-2.21q0-10,0-20a15,15,0,0,1,0-5.47c1-4.44-1-7.78-4.21-10.76,2.48.34,3.71,2.34,5.61,3.21C74.72,11.8,74,15.19,74,18.24,73.87,20,74.4,21.87,73.38,23.55Z"/><path class="cls-4" d="M105.68,18.21a12.91,12.91,0,0,0,0,5.36c-.64,4.1-.12,8.24-.28,12.36,0,1.27.09,2.55,0,3.8-.44,4.74,0,9.12,4.47,12,.4.26.77.7.18,1.79-2.82-2.58-5.6-5-8.22-7.65-.46-.46-.32-1.61-.33-2.44q-.07-9.88-.11-19.79a12.65,12.65,0,0,1-.06-5.51c1-4.39-.68-7.83-4.26-10.37a1.18,1.18,0,0,1,1.84-.11c.5.32.89.81,1.4,1.08C104.05,10.77,106.06,13.8,105.68,18.21Z"/><path class="cls-5" d="M87.2,18.17A10.35,10.35,0,0,1,87,23.69a6.53,6.53,0,0,1-6.42,0,10.85,10.85,0,0,1-.19-5.57Z"/><path class="cls-6" d="M95,18.13a19.37,19.37,0,0,1,0,5.43l-3.77,0a21.76,21.76,0,0,1,0-5.41Z"/><path class="cls-7" d="M69.21,18.07a9.35,9.35,0,0,1,0,5.47H66.36a14.08,14.08,0,0,1,0-5.45Z"/><path class="cls-8" d="M73.38,18.06l3,0a9.54,9.54,0,0,1,0,5.45l-3,0A21.93,21.93,0,0,1,73.38,18.06Z"/><path class="cls-9" d="M101.27,18.13a10.76,10.76,0,0,1,.06,5.52l-2.24-.11a9.49,9.49,0,0,1,0-5.41Z"/></g></g></svg>