<svg xmlns="http://www.w3.org/2000/svg" viewBox="0 0 21.65 24"><defs><style>.cls-1{fill:#414141;}</style></defs><title>Asset 10</title><g id="Layer_2" data-name="Layer 2"><g id="Layer_1-2" data-name="Layer 1"><path class="cls-1" d="M21.65,5.29V.68a.7.7,0,0,0-.28-.55.71.71,0,0,0-.6-.1L7,4.39A.68.68,0,0,0,6.57,5V9.65h0v8.81A4.66,4.66,0,0,0,4,17.7a4.6,4.6,0,0,0-2.73.86,2.75,2.75,0,0,0,0,4.58A4.6,4.6,0,0,0,4,24a4.58,4.58,0,0,0,2.73-.86,2.85,2.85,0,0,0,1.24-2.29V10.15L20.29,6.22v7.87a4.77,4.77,0,0,0-5.33.09,2.73,2.73,0,0,0,0,4.58,4.76,4.76,0,0,0,5.46,0,2.87,2.87,0,0,0,1.23-2.29V5.29ZM4,22.64c-1.41,0-2.6-.82-2.6-1.79S2.55,19.06,4,19.06s2.61.82,2.61,1.79S5.38,22.64,4,22.64Zm4-13.92V5.53L20.29,1.61V4.79Zm9.76,9.54c-1.41,0-2.6-.82-2.6-1.79s1.19-1.79,2.6-1.79,2.61.82,2.61,1.79S19.1,18.26,17.69,18.26Z"/></g></g></svg>