<svg xmlns="http://www.w3.org/2000/svg" viewBox="0 0 24 24"><defs><style>.cls-1{fill:#fff;}</style></defs><title>Asset 5</title><g id="Layer_2" data-name="Layer 2"><g id="Layer_1-2" data-name="Layer 1"><path class="cls-1" d="M22.67,6.51a12,12,0,0,0-3.54-4.16.49.49,0,0,0-.69.1.48.48,0,0,0,.11.68A11.11,11.11,0,0,1,21.8,7,10.84,10.84,0,0,1,23,12,11,11,0,1,1,12,1a.49.49,0,1,0,0-1A12,12,0,1,0,22.67,6.51Z"/><path class="cls-1" d="M8.93,6.43a.49.49,0,0,0-.25.42V17.57a.49.49,0,0,0,1,0V7.71L16.89,12l-5.32,3.42a.5.5,0,0,0-.14.68.48.48,0,0,0,.67.14l6-3.85a.5.5,0,0,0,.23-.42.52.52,0,0,0-.24-.41L9.42,6.43A.48.48,0,0,0,8.93,6.43Z"/></g></g></svg>