<svg xmlns="http://www.w3.org/2000/svg" viewBox="0 0 19.21 24"><defs><style>.cls-1{fill:#414141;}</style></defs><title>Asset 8</title><g id="Layer_2" data-name="Layer 2"><g id="Layer_1-2" data-name="Layer 1"><path class="cls-1" d="M19.2,20.75,17.83,5.27a.66.66,0,0,0-.66-.6H14.35a4.75,4.75,0,0,0-9.49,0H2a.66.66,0,0,0-.66.6L0,20.75v.05A3.41,3.41,0,0,0,3.6,24h12a3.41,3.41,0,0,0,3.6-3.2A.11.11,0,0,0,19.2,20.75ZM9.6,1.33A3.42,3.42,0,0,1,13,4.67H6.19A3.41,3.41,0,0,1,9.6,1.33Zm6,21.34H3.6a2.1,2.1,0,0,1-2.27-1.84L2.64,6H4.86V8A.66.66,0,1,0,6.18,8V6H13V8a.67.67,0,0,0,1.33,0V6h2.21l1.32,14.83A2.1,2.1,0,0,1,15.61,22.67Z"/></g></g></svg>