<svg xmlns="http://www.w3.org/2000/svg" viewBox="0 0 24 24"><defs><style>.cls-1{fill:#414141;}</style></defs><title>Asset 9</title><g id="Layer_2" data-name="Layer 2"><g id="Layer_1-2" data-name="Layer 1"><path class="cls-1" d="M23.59,23.19a3.26,3.26,0,0,1-3.25-3.26h0a11.85,11.85,0,1,0-.75.72,4.07,4.07,0,0,0,4,3.36.41.41,0,1,0,0-.81ZM.81,11.8a11,11,0,1,1,11,11A11,11,0,0,1,.81,11.8Z"/><path class="cls-1" d="M11.8,1.63A10.17,10.17,0,1,0,22,11.8,10.18,10.18,0,0,0,11.8,1.63Zm0,19.52a9.36,9.36,0,1,1,9.35-9.35A9.36,9.36,0,0,1,11.8,21.15Z"/><path class="cls-1" d="M16.68,9a2.6,2.6,0,0,0-.4,0V9L16,9h0a3.12,3.12,0,0,0-.43.15h0a2.42,2.42,0,0,0-.39.21h0a2.72,2.72,0,0,0-.32.25l-.07.06a3.58,3.58,0,0,0-.26.29l0,.07a2,2,0,0,0-.22.34h0a2.54,2.54,0,0,0-.16.38l0,.07a2.6,2.6,0,0,0-.1.4.19.19,0,0,0,0,.08,3,3,0,0,0,0,.43,3.13,3.13,0,0,0,0,.43.25.25,0,0,0,0,.08,2.79,2.79,0,0,0,.1.39l0,.07a2.54,2.54,0,0,0,.16.38h0a2.46,2.46,0,0,0,.22.34l0,.06a2.43,2.43,0,0,0,.26.29l.07.06a2,2,0,0,0,.32.25h0c.12.08.26.15.39.22h0a3.12,3.12,0,0,0,.43.15h0l.3.08v0a2.6,2.6,0,0,0,.4,0,2.85,2.85,0,1,0,0-5.69Zm-.41,2.85a4.42,4.42,0,0,1-.41,1.86l-.29-.16-.09-.07-.19-.16-.08-.07L15,13l0-.05a1.78,1.78,0,0,1-.17-.3.69.69,0,0,0,0-.1c0-.08,0-.16-.08-.25a.43.43,0,0,0,0-.11,1.69,1.69,0,0,1,0-.73l0-.11a2.33,2.33,0,0,1,.07-.25.36.36,0,0,0,0-.09,1.87,1.87,0,0,1,.17-.31l0,0a1.45,1.45,0,0,1,.19-.23l.08-.08.19-.16.09-.07.3-.16A4.62,4.62,0,0,1,16.27,11.8Zm.41,2h0a5.22,5.22,0,0,0,.41-2,5.31,5.31,0,0,0-.41-2h0a2,2,0,0,1,0,4.07Z"/><path class="cls-1" d="M9.14,13.56l0-.06a4,4,0,0,0,.23-.34h0a2.59,2.59,0,0,0,.17-.38.19.19,0,0,0,0-.07,2.62,2.62,0,0,0,.11-.4.17.17,0,0,1,0-.07,3.11,3.11,0,0,0,0-.43,3.25,3.25,0,0,0,0-.44s0,0,0-.07a1.8,1.8,0,0,0-.1-.4.25.25,0,0,0,0-.07,2.59,2.59,0,0,0-.17-.38h0a2.88,2.88,0,0,0-.23-.34.18.18,0,0,0,0-.07,3.58,3.58,0,0,0-.26-.29l-.06-.06a2,2,0,0,0-.33-.25h0a2.42,2.42,0,0,0-.39-.21h0a2.19,2.19,0,0,0-.43-.15h0L7.32,9V9L6.92,9a2.85,2.85,0,1,0,0,5.69,2.56,2.56,0,0,0,.39,0v0l.31-.08h0a3.12,3.12,0,0,0,.43-.15h0a3.61,3.61,0,0,0,.39-.22h0a2,2,0,0,0,.33-.25l.06-.06A2.43,2.43,0,0,0,9.14,13.56Zm-.23-1.4a.43.43,0,0,1,0,.11,1.83,1.83,0,0,1-.08.25.3.3,0,0,1,0,.1,1.73,1.73,0,0,1-.16.3l0,.05a1.92,1.92,0,0,1-.19.23l-.08.07-.19.16L8,13.5a2.69,2.69,0,0,1-.29.16,4.42,4.42,0,0,1-.41-1.86,4.47,4.47,0,0,1,.41-1.87,2.69,2.69,0,0,1,.29.16l.09.07.19.16.08.08a1.37,1.37,0,0,1,.19.23l0,0a1.82,1.82,0,0,1,.16.31.36.36,0,0,1,0,.09,2.41,2.41,0,0,1,.08.25.43.43,0,0,1,0,.11,1.69,1.69,0,0,1,0,.73Zm-4-.36a2,2,0,0,1,2-2h0a5.31,5.31,0,0,0-.41,2,5.22,5.22,0,0,0,.41,2h0A2,2,0,0,1,4.88,11.8Z"/><path class="cls-1" d="M9,7.32,9,7.63h0a3.12,3.12,0,0,0,.15.43v0a2.42,2.42,0,0,0,.21.39h0a2.85,2.85,0,0,0,.25.33l.06.06.29.26a.18.18,0,0,0,.07,0,2,2,0,0,0,.34.23h0a2.59,2.59,0,0,0,.38.17l.07,0a2.62,2.62,0,0,0,.4.11h.07a3.25,3.25,0,0,0,.44,0,3.11,3.11,0,0,0,.43,0l.08,0a1.86,1.86,0,0,0,.39-.1l.07,0a2.59,2.59,0,0,0,.38-.17h0a4,4,0,0,0,.34-.23l.06,0a2.43,2.43,0,0,0,.29-.26l.06-.06a2.91,2.91,0,0,0,.26-.33h0a3.61,3.61,0,0,0,.22-.39v0a3.12,3.12,0,0,0,.15-.43h0l.08-.31h0a2.56,2.56,0,0,0,0-.39A2.85,2.85,0,1,0,9,6.92a2.56,2.56,0,0,0,0,.39ZM13.5,8l-.07.09a1.46,1.46,0,0,1-.16.19l-.07.08a1.92,1.92,0,0,1-.23.19l-.05,0a1.73,1.73,0,0,1-.3.16l-.1,0-.25.08-.11,0a1.69,1.69,0,0,1-.73,0l-.11,0-.25-.08-.09,0a1.82,1.82,0,0,1-.31-.16l0,0a1.06,1.06,0,0,1-.23-.19l-.08-.08a1.46,1.46,0,0,1-.16-.19L10.09,8a2.69,2.69,0,0,1-.16-.29,4.57,4.57,0,0,1,3.73,0A2.69,2.69,0,0,1,13.5,8ZM11.8,4.88a2,2,0,0,1,2,2h0a5.41,5.41,0,0,0-4.07,0h0A2,2,0,0,1,11.8,4.88Z"/><path class="cls-1" d="M14.63,16.27l-.08-.3h0a3.26,3.26,0,0,0-.15-.44v0a3.61,3.61,0,0,0-.22-.39h0a2,2,0,0,0-.25-.32l-.06-.07a2.43,2.43,0,0,0-.29-.26l-.06,0a2.46,2.46,0,0,0-.34-.22h0a2.54,2.54,0,0,0-.38-.16l-.07,0a2.6,2.6,0,0,0-.4-.1h-.07a3.13,3.13,0,0,0-.43,0,3.27,3.27,0,0,0-.44,0h-.07a2.6,2.6,0,0,0-.4.1l-.07,0a2.54,2.54,0,0,0-.38.16h0a2,2,0,0,0-.34.22l-.07,0-.29.26-.06.07a3.92,3.92,0,0,0-.25.32h0a2.93,2.93,0,0,0-.21.39v0a3.26,3.26,0,0,0-.15.44H9l-.08.3H9a2.6,2.6,0,0,0,0,.4,2.85,2.85,0,1,0,5.69,0,2.6,2.6,0,0,0,0-.4Zm-4.54-.7.07-.09a1.46,1.46,0,0,1,.16-.19l.08-.08a2.11,2.11,0,0,1,.23-.19l0,0a1.87,1.87,0,0,1,.31-.17l.09,0,.25-.07.11,0a1.69,1.69,0,0,1,.73,0l.11,0,.25.07.1,0a1.78,1.78,0,0,1,.3.17L13,15l.23.19.07.08a1.46,1.46,0,0,1,.16.19l.07.09.16.29a4.5,4.5,0,0,1-3.73,0Zm1.71,3.14a2,2,0,0,1-2-2h0a5.31,5.31,0,0,0,2,.41,5.22,5.22,0,0,0,2-.41h0A2,2,0,0,1,11.8,18.71Z"/></g></g></svg>